<svg xmlns="http://www.w3.org/2000/svg" viewBox="0 0 24 24" fill="currentColor">
  <path d="M12 2c-4.42 0-8 3.58-8 8s3.58 8 8 8 8-3.58 8-8-3.58-8-8-8zm0 14c-2.22 0-4-1.78-4-4s1.78-4 4-4 4 1.78 4 4-1.78 4-4 4zM12 4c-3.31 0-6 2.69-6 6s2.69 6 6 6 6-2.69 6-6-2.69-6-6-6zm4.54 10H7.46c.21-1.02.66-1.86 1.24-2.56.4-.45.89-.8 1.44-1.05.39-.18.8-.3 1.22-.33.23-.02.46-.02.69-.02s.46 0 .69.02c.42.03.83.15 1.22.33.55.25 1.04.6 1.44 1.05.58.7 1.03 1.54 1.24 2.56zm1.6-4.17l2.14-3.71-2.14-3.71c-.11-.19-.23-.37-.38-.53-.15-.15-.34-.27-.53-.38l-3.71-2.14-3.71 2.14c-.19.11-.37.23-.53.38-.15.15-.27.34-.38.53l-2.14 3.71 2.14 3.71c.11.19.23.37.38.53.15.15.34.27.53.38l3.71 2.14 3.71-2.14c.19-.11.37-.23.53-.38.15-.15.27-.34.38-.53zm-7.14-6.26c-.11-.19-.23-.37-.38-.53-.15-.15-.34-.27-.53-.38l-3.71-2.14-3.71 2.14c-.19.11-.37.23-.53.38-.15.15-.27.34-.38.53l-2.14 3.71 2.14 3.71c.11.19.23.37.38.53.15.15.34.27.53.38l3.71 2.14 3.71-2.14c.19-.11.37-.23.53-.38.15-.15.27-.34.38-.53l2.14-3.71-2.14-3.71z"/>
</svg>
